<mxfile host="app.diagrams.net" modified="2023-06-16T10:21:14.841Z" agent="Mozilla/5.0 (Windows NT 10.0; Win64; x64) AppleWebKit/537.36 (KHTML, like Gecko) Chrome/114.0.0.0 Safari/537.36" version="21.4.0" etag="-R6P21HfiN9vE_m-gAzM" type="github">
  <diagram name="Page-1" id="OBybCgYgg-1gCRSYW8rP">
    <mxGraphModel>
      <root>
        <mxCell id="0" />
        <mxCell id="1" parent="0" />
      </root>
    </mxGraphModel>
  </diagram>
</mxfile>
